<svg width="256" height="256" viewBox="0 0 256 256" fill="none" xmlns="http://www.w3.org/2000/svg">
<path d="M128.051 146.974V146.654L128.291 144.31L128.602 141.957L128.993 139.613L129.463 137.34L130.014 135.066L130.635 132.793L131.336 130.53L132.127 128.336L132.989 126.143L133.85 123.95L134.781 121.837L135.783 119.723L136.884 117.61L138.056 115.607L139.308 113.604L140.56 111.601L141.892 109.598L143.304 107.725L144.786 105.923L146.359 104.12L147.921 102.397L149.563 100.675L151.286 99.0323L153.009 97.4599L154.811 95.8976L156.614 94.4053L158.497 93.0032L160.5 91.6712L162.453 90.4193L164.456 89.1674L166.459 87.9857L168.622 86.9141L170.735 85.9126L172.848 84.9711L175.042 84.1098L177.235 83.2485L179.038 82.6276L127.56 31L76.063 82.5275L77.8557 83.1484L80.049 84.0097L82.2423 84.871L84.3555 85.8124L86.4686 86.8139L88.5918 87.9055L90.5948 89.0873L92.5978 90.3392L94.6008 91.5911L96.6039 92.9231L98.4567 94.3452L100.249 95.8275L102.052 97.3898L103.775 98.9622L105.497 100.605L107.15 102.327L108.712 104.05L110.274 105.853L111.767 107.655L113.179 109.528L114.501 111.531L115.763 113.534L117.015 115.537L118.186 117.54L119.278 119.653L120.279 121.766L121.221 123.88L122.082 126.073L122.943 128.266L123.725 130.46L124.426 132.733L125.057 134.996L125.607 137.27L126.078 139.543L126.469 141.887L126.779 144.24L127.01 146.594V146.904H128.011L128.051 146.974Z" fill="black"/>
<path d="M118.837 224.009V151.811L118.757 149.808L118.597 147.805L118.366 145.801L118.046 143.798L117.655 141.795L117.265 139.792L116.794 137.789L116.253 135.786L115.622 133.834L114.921 131.83L114.21 129.827L113.429 127.945L112.568 126.072L111.626 124.189L110.685 122.386L109.683 120.594L108.582 118.791L107.49 117.068L106.318 115.346L105.016 113.593L103.684 111.951L102.352 110.388L101.01 108.826L99.5982 107.334L98.1159 105.922L96.5436 104.519L95.0013 103.187L93.3588 101.855L91.6663 100.574L89.9937 99.4218L88.2711 98.3301L86.4684 97.2285L84.6657 96.227L82.863 95.2856L80.9802 94.3341L79.1074 93.4728L77.2245 92.6916L75.2215 91.9906L73.2185 91.2795L71.2155 90.6586L69.2125 90.1078L67.2095 89.6371L65.2065 89.2465L63.2035 88.8559L61.2005 88.5454L59.1974 88.3051L57.1944 88.1448L55.1914 88.0747H34.7307C29.152 102.522 26.996 118.065 28.4318 133.485C29.8676 148.905 34.856 163.783 43.006 176.952C51.1559 190.121 62.2458 201.223 75.4059 209.388C88.566 217.552 103.439 222.557 118.857 224.009H118.837Z" fill="black"/>
<path d="M202.902 88.1749H200.899L198.896 88.245L196.893 88.4052L194.89 88.6456L192.887 88.956L190.884 89.3466L188.881 89.7372L186.878 90.2079L184.875 90.7587L182.922 91.3797L180.919 92.0907L178.916 92.7918L177.033 93.573L175.16 94.4343L173.277 95.3757L171.475 96.3171L169.672 97.3186L167.879 98.4203L166.157 99.5119L164.304 100.674L162.651 101.926L161.009 103.258L159.447 104.59L157.884 105.992L156.392 107.404L154.98 108.896L153.568 110.458L152.246 112.021L150.914 113.693L149.662 115.346L148.48 117.068L147.388 118.791L146.287 120.594L145.285 122.386L144.344 124.189L143.402 126.072L142.541 127.945L141.76 129.827L141.059 131.83L140.348 133.834L139.727 135.786L139.176 137.789L138.705 139.792L138.315 141.795L137.924 143.798L137.614 145.801L137.373 147.805L137.213 149.808L137.143 151.811V224.009C152.562 222.557 167.434 217.552 180.594 209.388C193.754 201.223 204.844 190.121 212.994 176.952C221.144 163.783 226.133 148.905 227.568 133.485C229.004 118.065 226.848 102.522 221.27 88.0747L202.902 88.1749Z" fill="black"/>
</svg>
